# Blender v2.81 (sub 16) OBJ File: ''
# www.blender.org
v 0.000000 0.000000 -1.000000
v 0.000000 2.000000 -1.000000
v 0.309017 0.000000 -0.951057
v 0.309017 2.000000 -0.951057
v 0.587785 0.000000 -0.809017
v 0.587785 2.000000 -0.809017
v 0.809017 0.000000 -0.587785
v 0.809017 2.000000 -0.587785
v 0.951057 0.000000 -0.309017
v 0.951057 2.000000 -0.309017
v 1.000000 0.000000 0.000000
v 1.000000 2.000000 0.000000
v 0.951056 0.000000 0.309017
v 0.951056 2.000000 0.309017
v 0.809017 0.000000 0.587785
v 0.809017 2.000000 0.587785
v 0.587785 0.000000 0.809017
v 0.587785 2.000000 0.809017
v 0.309017 0.000000 0.951057
v 0.309017 2.000000 0.951057
v -0.000000 0.000000 1.000000
v -0.000000 2.000000 1.000000
v -0.309017 0.000000 0.951056
v -0.309017 2.000000 0.951056
v -0.587786 0.000000 0.809017
v -0.587786 2.000000 0.809017
v -0.809017 0.000000 0.587785
v -0.809017 2.000000 0.587785
v -0.951057 0.000000 0.309016
v -0.951057 2.000000 0.309016
v -1.000000 0.000000 -0.000001
v -1.000000 2.000000 -0.000001
v -0.951056 0.000000 -0.309018
v -0.951056 2.000000 -0.309018
v -0.809016 0.000000 -0.587786
v -0.809016 2.000000 -0.587786
v -0.587784 0.000000 -0.809018
v -0.587784 2.000000 -0.809018
v -0.309016 0.000000 -0.951057
v -0.309016 2.000000 -0.951057
vn 0.0000 0.0000 -1.0000
vn 0.3090 0.0000 -0.9510
vn 0.5878 0.0000 -0.8090
vn 0.8090 0.0000 -0.5878
vn 0.9510 0.0000 -0.3090
vn 1.0000 0.0000 0.0000
vn 0.9510 0.0000 0.3090
vn 0.8090 0.0000 0.5878
vn 0.5878 0.0000 0.8090
vn 0.3090 0.0000 0.9510
vn 0.0000 0.0000 1.0000
vn -0.3090 0.0000 0.9510
vn -0.5878 0.0000 0.8090
vn -0.8090 0.0000 0.5878
vn -0.9510 0.0000 0.3090
vn -1.0000 0.0000 0.0000
vn -0.9510 0.0000 -0.3090
vn -0.8090 0.0000 -0.5878
vn -0.5878 0.0000 -0.8090
vn -0.3090 0.0000 -0.9510
s 1
f 2//1 3//2 1//1
f 4//2 5//3 3//2
f 6//3 7//4 5//3
f 8//4 9//5 7//4
f 10//5 11//6 9//5
f 12//6 13//7 11//6
f 14//7 15//8 13//7
f 16//8 17//9 15//8
f 18//9 19//10 17//9
f 20//10 21//11 19//10
f 22//11 23//12 21//11
f 24//12 25//13 23//12
f 26//13 27//14 25//13
f 28//14 29//15 27//14
f 30//15 31//16 29//15
f 32//16 33//17 31//16
f 34//17 35//18 33//17
f 36//18 37//19 35//18
f 38//19 39//20 37//19
f 40//20 1//1 39//20
f 2//1 4//2 3//2
f 4//2 6//3 5//3
f 6//3 8//4 7//4
f 8//4 10//5 9//5
f 10//5 12//6 11//6
f 12//6 14//7 13//7
f 14//7 16//8 15//8
f 16//8 18//9 17//9
f 18//9 20//10 19//10
f 20//10 22//11 21//11
f 22//11 24//12 23//12
f 24//12 26//13 25//13
f 26//13 28//14 27//14
f 28//14 30//15 29//15
f 30//15 32//16 31//16
f 32//16 34//17 33//17
f 34//17 36//18 35//18
f 36//18 38//19 37//19
f 38//19 40//20 39//20
f 40//20 2//1 1//1
